<?xml version="1.0" encoding="iso-8859-1"?>
<!-- Uploaded to: SVG Repo, www.svgrepo.com, Generator: SVG Repo Mixer Tools -->
<svg version="1.1" id="Layer_1" xmlns="http://www.w3.org/2000/svg" xmlns:xlink="http://www.w3.org/1999/xlink" 
	 viewBox="0 0 511.999 511.999" xml:space="preserve">
<g>
	<path style="fill:#A5B8C4;" d="M144.003,405.175v45.444c0,2.873,2.351,5.224,5.224,5.224h17.215c2.873,0,5.224-2.351,5.224-5.224
		v-45.444H144.003z"/>
	<path style="fill:#A5B8C4;" d="M337.268,405.175v45.444c0,2.873,2.351,5.224,5.224,5.224h17.214c2.873,0,5.224-2.351,5.224-5.224
		v-45.444H337.268z"/>
	<rect x="166.316" y="340.186" style="fill:#A5B8C4;" width="22.006" height="42.613"/>
	<rect x="320.063" y="340.186" style="fill:#A5B8C4;" width="22.006" height="42.613"/>
</g>
<path style="fill:#A67C52;" d="M393.682,399.951c0,2.873-2.351,5.224-5.224,5.224H122.433c-2.873,0-5.224-2.351-5.224-5.224v-11.923
	c0-2.873,2.351-5.224,5.224-5.224h266.025c2.873,0,5.224,2.351,5.224,5.224V399.951z"/>
<path style="fill:#998675;" d="M375.703,337.558c0,5.747-4.702,10.449-10.449,10.449H143.56c-5.747,0-10.449-4.702-10.449-10.449
	v-66.227c0-5.747,4.702-10.449,10.449-10.449h221.695c5.747,0,10.449,4.702,10.449,10.449V337.558z"/>
<path style="opacity:0.1;enable-background:new    ;" d="M154.645,337.558v-66.227c0-5.747,4.702-10.449,10.449-10.449H143.56
	c-5.747,0-10.449,4.702-10.449,10.449v66.227c0,5.747,4.702,10.449,10.449,10.449h21.534
	C159.347,348.007,154.645,343.305,154.645,337.558z"/>
<path style="fill:#5D9341;" d="M110.273,329.276c0,28.377-22.931,51.382-51.218,51.382c-28.289,0-51.219-23.006-51.219-51.382
	c0-28.377,22.93-61.976,51.219-61.976C87.342,267.3,110.273,300.899,110.273,329.276z"/>
<path style="opacity:0.1;enable-background:new    ;" d="M29.257,329.276c0-24.691,17.364-53.325,40.509-60.349
	c-3.454-1.049-7.035-1.627-10.71-1.627c-28.289,0-51.219,33.599-51.219,61.976s22.93,51.382,51.219,51.382
	c3.674,0,7.255-0.396,10.71-1.134C46.621,374.584,29.257,353.968,29.257,329.276z"/>
<path style="fill:#8EBA3F;" d="M99.865,260.397c0,22.612-18.271,40.941-40.81,40.941c-22.541,0-40.812-18.33-40.812-40.941
	c0-22.611,18.271-51.686,40.812-51.686C81.594,208.712,99.865,237.787,99.865,260.397z"/>
<path id="SVGCleanerId_0" style="fill:#B7ED69;" d="M91.377,199.169c0,17.906-14.471,32.424-32.322,32.424
	c-17.852,0-32.322-14.518-32.322-32.424c0-17.909,14.47-43.816,32.322-43.816C76.907,155.353,91.377,181.26,91.377,199.169z"/>
<path style="opacity:0.1;enable-background:new    ;" d="M39.664,260.397c0-18.892,12.758-42.283,30.1-49.472
	c-3.415-1.415-7.002-2.215-10.71-2.215c-22.541,0-40.812,29.075-40.812,51.686c0,22.612,18.271,40.941,40.812,40.941
	c3.707,0,7.295-0.505,10.71-1.435C52.423,295.183,39.664,279.289,39.664,260.397z"/>
<g>
	<path id="SVGCleanerId_0_1_" style="fill:#B7ED69;" d="M91.377,199.169c0,17.906-14.471,32.424-32.322,32.424
		c-17.852,0-32.322-14.518-32.322-32.424c0-17.909,14.47-43.816,32.322-43.816C76.907,155.353,91.377,181.26,91.377,199.169z"/>
</g>
<path style="opacity:0.1;enable-background:new    ;" d="M48.154,199.169c0-14.142,9.026-33.259,21.612-40.681
	c-3.352-1.977-6.955-3.134-10.71-3.134c-17.852,0-32.322,25.907-32.322,43.816c0,17.906,14.47,32.424,32.322,32.424
	c3.755,0,7.357-0.65,10.71-1.831C57.18,225.329,48.154,213.308,48.154,199.169z"/>
<path style="fill:#FF8163;" d="M263.028,194.066c-4.435-4.442-6.878-10.351-6.878-16.632c0-6.282,2.443-12.19,6.879-16.632
	c4.434-4.442,10.329-6.891,16.599-6.891c6.271,0,12.169,2.449,16.603,6.891l1.377,1.38l1.378-1.38
	c4.435-4.442,10.329-6.891,16.602-6.891c4.725,0,9.235,1.393,13.068,3.977l8.176-8.198c10.434-10.455,16.184-24.359,16.184-39.146
	c0-14.786-5.75-28.69-16.184-39.145c-10.435-10.456-24.312-16.215-39.073-16.215c-14.763,0-28.635,5.758-39.072,16.215l-3.244,3.249
	l-3.244-3.249c-10.435-10.456-24.312-16.215-39.071-16.215c-14.762,0-28.638,5.758-39.074,16.215
	c-10.436,10.455-16.184,24.359-16.184,39.145c0,14.787,5.747,28.691,16.181,39.144l73.824,74.026
	c2.007,2.011,4.73,3.139,7.566,3.139c2.839,0,5.562-1.127,7.566-3.139l14.792-14.831L263.028,194.066z"/>
<g style="opacity:0.1;">
	<path d="M269.729,213.153l-73.824-74.026c-10.435-10.453-16.182-24.357-16.182-39.144c0-14.786,5.747-28.69,16.184-39.145
		c1.511-1.514,3.102-2.917,4.75-4.232c-9.993,2.3-19.171,7.348-26.6,14.791c-10.436,10.455-16.184,24.359-16.184,39.145
		c0,14.787,5.747,28.691,16.181,39.144l73.824,74.026c2.007,2.011,4.73,3.139,7.566,3.139c2.839,0,5.562-1.127,7.566-3.139
		l8.877-8.903C271.109,214.353,270.379,213.804,269.729,213.153z"/>
</g>
<path style="fill:#5D9341;" d="M504.163,327.488c0,28.378-22.931,51.383-51.218,51.383c-28.289,0-51.22-23.004-51.22-51.383
	c0-28.377,22.93-61.942,51.22-61.942C481.232,265.546,504.163,299.111,504.163,327.488z"/>
<path style="opacity:0.1;enable-background:new    ;" d="M423.184,327.488c0-24.685,17.354-53.284,40.49-60.312
	c-3.461-1.051-7.048-1.631-10.728-1.631c-28.289,0-51.22,33.565-51.22,61.942c0,28.378,22.93,51.383,51.22,51.383
	c3.68,0,7.267-0.398,10.728-1.138C440.537,372.785,423.184,352.174,423.184,327.488z"/>
<path style="fill:#E84731;" d="M297.609,226.851c-1.205,0-2.361-0.479-3.214-1.332l-31.367-31.454
	c-4.435-4.442-6.878-10.351-6.878-16.632c0-6.282,2.443-12.19,6.879-16.632c4.433-4.442,10.329-6.891,16.599-6.891
	c6.271,0,12.169,2.449,16.603,6.891l1.377,1.38l1.378-1.38c4.435-4.442,10.329-6.891,16.602-6.891
	c6.272,0,12.168,2.449,16.601,6.891c4.435,4.442,6.878,10.35,6.878,16.632c0,6.282-2.443,12.19-6.878,16.632l-31.367,31.454
	C299.972,226.374,298.816,226.851,297.609,226.851z"/>
<path style="opacity:0.1;enable-background:new    ;" d="M284.878,183.507c-4.435-4.442-6.878-10.351-6.878-16.632
	c0-4.637,1.34-9.067,3.821-12.856c-0.724-0.067-1.456-0.108-2.192-0.108c-6.27,0-12.166,2.449-16.599,6.891
	c-4.436,4.442-6.879,10.35-6.879,16.632c0,6.282,2.443,12.19,6.878,16.632l31.367,31.454c0.853,0.854,2.009,1.332,3.214,1.332
	c1.207,0,2.364-0.479,3.215-1.332l12.976-13.011L284.878,183.507z"/>
<path style="fill:#8EBA3F;" d="M493.755,258.609c0,22.612-18.27,40.941-40.81,40.941c-22.541,0-40.812-18.331-40.812-40.941
	c0-22.611,18.27-51.652,40.812-51.652C475.484,206.956,493.755,235.998,493.755,258.609z"/>
<path style="opacity:0.1;enable-background:new    ;" d="M433.591,258.609c0-18.884,12.749-42.242,30.083-49.432
	c-3.42-1.418-7.013-2.22-10.728-2.22c-22.541,0-40.812,29.042-40.812,51.652c0,22.612,18.27,40.941,40.812,40.941
	c3.715,0,7.309-0.507,10.728-1.44C446.341,293.383,433.591,277.494,433.591,258.609z"/>
<path style="fill:#B7ED69;" d="M485.266,197.379c0,17.909-14.471,32.425-32.321,32.425c-17.853,0-32.323-14.517-32.323-32.425
	c0-17.907,14.471-43.78,32.323-43.78C470.795,153.598,485.266,179.472,485.266,197.379z"/>
<path style="opacity:0.1;enable-background:new    ;" d="M442.08,197.379c0-14.133,9.017-33.219,21.594-40.639
	c-3.357-1.981-6.966-3.141-10.728-3.141c-17.853,0-32.323,25.874-32.323,43.78c0,17.909,14.471,32.425,32.323,32.425
	c3.762,0,7.371-0.651,10.728-1.837C451.097,223.528,442.08,211.513,442.08,197.379z"/>
<path d="M388.458,374.966H349.9v-19.123h15.355c10.083,0,18.286-8.203,18.286-18.286v-66.227c0-10.082-8.202-18.286-18.286-18.286
	H143.56c-10.082,0-18.286,8.204-18.286,18.286v66.227c0,10.082,8.203,18.286,18.286,18.286h14.919v19.123h-36.045
	c-7.202,0-13.061,5.859-13.061,13.061v11.923c0,7.202,5.859,13.061,13.061,13.061h13.733v37.607c0,7.202,5.859,13.061,13.061,13.061
	h17.215c7.202,0,13.061-5.859,13.061-13.061v-37.607h149.928v37.607c0,7.202,5.859,13.061,13.061,13.061h17.214
	c7.202,0,13.061-5.859,13.061-13.061v-37.607h15.69c7.202,0,13.061-5.859,13.061-13.061v-11.923
	C401.519,380.825,395.66,374.966,388.458,374.966z M140.947,297.65h36.685c4.328,0,7.837-3.509,7.837-7.837
	s-3.509-7.837-7.837-7.837h-36.685v-10.645c0-1.416,1.196-2.612,2.612-2.612h221.695c1.416,0,2.612,1.196,2.612,2.612v10.645
	H211.068c-4.328,0-7.837,3.509-7.837,7.837s3.509,7.837,7.837,7.837h156.798v13.259H140.947V297.65z M143.56,340.17
	c-1.416,0-2.612-1.196-2.612-2.612v-10.976h226.919v10.976c0,1.416-1.196,2.612-2.612,2.612H143.56z M334.226,355.844v19.123h-6.331
	v-19.123H334.226z M312.222,355.844v19.123H196.158v-19.123H312.222z M180.484,355.844v19.123h-6.333v-19.123H180.484z
	 M163.83,448.007h-11.99v-34.995h11.99V448.007z M357.094,448.007h-11.989v-34.995h11.989V448.007z M385.845,397.339h-260.8v-6.699
	h260.8V397.339z"/>
<path d="M101.93,283.444c3.714-6.946,5.772-14.826,5.772-23.046c0-13.593-5.534-28.589-14.458-40.137
	c3.781-6.139,5.969-13.363,5.969-21.092c0-20.8-16.863-51.652-40.159-51.652s-40.159,30.853-40.159,51.652
	c0,7.729,2.188,14.954,5.97,21.092c-8.923,11.547-14.458,26.544-14.458,40.137c0,8.244,2.067,16.118,5.771,23.049
	C6.106,296.698,0,313.595,0,329.276c0,29.988,22.348,54.823,51.218,58.681v68.856c0,4.328,3.509,7.837,7.837,7.837
	s7.837-3.509,7.837-7.837v-68.855c28.869-3.857,51.219-28.694,51.219-58.681C118.11,313.594,112.003,296.695,101.93,283.444z
	 M59.056,163.19c12.147,0,24.485,20.932,24.485,35.979c0,13.558-10.984,24.587-24.485,24.587s-24.485-11.03-24.485-24.587
	C34.57,184.122,46.909,163.19,59.056,163.19z M66.891,372.096v-14.712l20.638-20.638c3.061-3.06,3.061-8.023,0-11.082
	c-3.059-3.06-8.022-3.06-11.082,0l-17.392,17.392l-17.391-17.392c-3.059-3.06-8.022-3.06-11.082,0c-3.061,3.06-3.061,8.023,0,11.082
	l20.637,20.638v14.712c-20.191-3.715-35.544-21.496-35.544-42.82c0-10.925,4.031-22.926,10.578-32.851
	c4.868,4.459,10.681,7.972,17.207,10.186c0.835,0.283,1.683,0.417,2.518,0.417c3.266,0,6.314-2.057,7.421-5.322
	c1.391-4.099-0.806-8.548-4.904-9.939c-13.406-4.545-22.413-17.153-22.413-31.37c0-9.34,3.816-19.99,9.687-28.46
	c6.573,4.709,14.61,7.492,23.288,7.492s16.713-2.783,23.287-7.491c5.871,8.47,9.687,19.12,9.687,28.459
	c0,13.227-7.816,25.162-19.914,30.408c-3.971,1.722-5.794,6.336-4.072,10.307c1.721,3.971,6.336,5.796,10.307,4.072
	c5.05-2.189,9.591-5.169,13.511-8.758c6.545,9.924,10.576,21.924,10.576,32.849C102.437,350.601,87.083,368.382,66.891,372.096z"/>
<path d="M49.918,243.78h-4.727c-4.328,0-7.837,3.509-7.837,7.837c0,4.328,3.509,7.837,7.837,7.837h4.727
	c4.328,0,7.837-3.509,7.837-7.837C57.755,247.289,54.246,243.78,49.918,243.78z"/>
<path d="M61.919,198.825c-4.328,0-7.837,3.509-7.837,7.837s3.509,7.837,7.837,7.837h4.727c4.328,0,7.837-3.509,7.837-7.837
	s-3.509-7.837-7.837-7.837H61.919z"/>
<path d="M54.6,190.452h4.727c4.328,0,7.837-3.509,7.837-7.837c0-4.328-3.509-7.837-7.837-7.837H54.6
	c-4.328,0-7.837,3.509-7.837,7.837C46.763,186.944,50.272,190.452,54.6,190.452z"/>
<path d="M72.918,278.273c4.328,0,7.837-3.509,7.837-7.837s-3.509-7.837-7.837-7.837h-4.727c-4.328,0-7.837,3.509-7.837,7.837
	s3.509,7.837,7.837,7.837H72.918z"/>
<path d="M242.332,229.248c3.5,3.508,8.158,5.44,13.112,5.44c4.889,0,9.671-1.984,13.116-5.442l9.242-9.267l11.05,11.08
	c2.338,2.341,5.449,3.629,8.757,3.629c3.266,0,6.461-1.325,8.764-3.635l31.364-31.45c5.912-5.921,9.168-13.795,9.168-22.169
	c0-7.277-2.462-14.173-6.984-19.741l2.463-2.469c3.056-3.065,3.049-8.027-0.016-11.083c-3.066-3.056-8.028-3.05-11.083,0.016
	l-4.119,4.13c-3.635-1.448-7.546-2.212-11.576-2.212c-6.527,0-12.75,1.987-17.98,5.675c-5.23-3.687-11.453-5.675-17.981-5.675
	c-8.365,0-16.23,3.264-22.145,9.19c-5.913,5.922-9.17,13.795-9.17,22.17c0,8.374,3.256,16.247,9.165,22.165l9.256,9.282l-9.275,9.3
	c-1.055,1.06-2.973,1.06-4.032-0.002L179.6,144.15c-8.958-8.975-13.891-20.909-13.891-33.608c0-12.698,4.934-24.633,13.894-33.608
	c8.955-8.973,20.861-13.914,33.527-13.914c12.663,0,24.569,4.941,33.525,13.915l3.243,3.249c1.47,1.472,3.465,2.3,5.545,2.3h0.001
	c2.08,0,4.075-0.827,5.545-2.3l3.245-3.25c8.956-8.973,20.862-13.914,33.526-13.914c12.664,0,24.571,4.941,33.526,13.914
	c8.96,8.978,13.895,20.914,13.895,33.608c0,4.026-0.497,8.016-1.477,11.862c-1.069,4.194,1.463,8.461,5.657,9.531
	c4.197,1.067,8.462-1.463,9.531-5.657c1.303-5.11,1.963-10.403,1.963-15.734c0-16.876-6.561-32.744-18.475-44.681
	c-11.917-11.94-27.763-18.516-44.619-18.516c-15.792,0-30.698,5.773-42.316,16.319c-11.618-10.547-26.523-16.319-42.315-16.319
	c-16.857,0-32.703,6.576-44.62,18.515c-11.913,11.935-18.475,27.803-18.475,44.682s6.56,32.747,18.47,44.678L242.332,229.248z
	 M263.987,177.434c0-4.192,1.629-8.132,4.589-11.096c2.955-2.96,6.88-4.591,11.053-4.591c4.175,0,8.101,1.631,11.055,4.59
	l1.377,1.38c1.47,1.473,3.465,2.301,5.546,2.302h0.001c2.08,0,4.075-0.828,5.545-2.3l1.379-1.381
	c2.955-2.96,6.882-4.591,11.056-4.591c4.174,0,8.099,1.63,11.055,4.591c2.958,2.962,4.587,6.903,4.587,11.095
	s-1.629,8.132-4.589,11.099l-29.033,29.113l-29.035-29.116C265.617,185.566,263.987,181.626,263.987,177.434z"/>
<path d="M495.82,283.444c3.714-6.946,5.772-14.826,5.772-23.046c0-13.593-5.534-28.589-14.458-40.137
	c3.781-6.139,5.97-13.363,5.97-21.092c0-20.8-16.863-51.652-40.159-51.652s-40.159,30.853-40.159,51.652
	c0,7.729,2.188,14.954,5.97,21.092c-8.926,11.548-14.459,26.545-14.459,40.138c0,8.244,2.067,16.118,5.771,23.049
	c-10.073,13.251-16.178,30.15-16.178,45.83c0,29.988,22.348,54.823,51.218,58.681v68.856c0,4.328,3.509,7.837,7.837,7.837
	c4.328,0,7.837-3.509,7.837-7.837v-68.857c28.869-3.857,51.219-28.694,51.219-58.681C512,313.594,505.893,296.695,495.82,283.444z
	 M452.945,163.19c12.147,0,24.485,20.932,24.485,35.979c0,13.558-10.984,24.587-24.485,24.587s-24.485-11.03-24.485-24.587
	C428.46,184.122,440.799,163.19,452.945,163.19z M460.781,372.096v-14.712l20.639-20.638c3.06-3.06,3.06-8.023,0-11.082
	c-3.059-3.06-8.022-3.06-11.083,0l-17.392,17.392l-17.391-17.392c-3.059-3.06-8.022-3.06-11.082,0c-3.061,3.06-3.061,8.023,0,11.082
	l20.637,20.638v14.712c-20.191-3.716-35.544-21.496-35.544-42.82c0-10.925,4.031-22.926,10.577-32.851
	c4.868,4.459,10.681,7.972,17.207,10.186c0.835,0.283,1.683,0.417,2.518,0.417c3.266,0,6.314-2.057,7.421-5.322
	c1.391-4.099-0.806-8.548-4.904-9.939c-13.405-4.547-22.412-17.154-22.412-31.371c0-9.34,3.816-19.99,9.687-28.46
	c6.573,4.709,14.61,7.492,23.288,7.492s16.713-2.783,23.287-7.491c5.871,8.47,9.687,19.12,9.687,28.459
	c0,13.227-7.816,25.162-19.914,30.408c-3.971,1.722-5.794,6.336-4.072,10.307c1.721,3.971,6.336,5.796,10.307,4.072
	c5.049-2.189,9.591-5.169,13.51-8.758c6.543,9.928,10.574,21.927,10.574,32.852C496.327,350.601,480.973,368.382,460.781,372.096z"
	/>
<path d="M443.808,243.78h-4.727c-4.328,0-7.837,3.509-7.837,7.837c0,4.328,3.509,7.837,7.837,7.837h4.727
	c4.328,0,7.837-3.509,7.837-7.837C451.645,247.289,448.136,243.78,443.808,243.78z"/>
<path d="M455.809,198.825c-4.328,0-7.837,3.509-7.837,7.837s3.509,7.837,7.837,7.837h4.727c4.328,0,7.837-3.509,7.837-7.837
	s-3.509-7.837-7.837-7.837H455.809z"/>
<path d="M448.49,190.452h4.727c4.328,0,7.837-3.509,7.837-7.837c0-4.328-3.509-7.837-7.837-7.837h-4.727
	c-4.328,0-7.837,3.509-7.837,7.837C440.653,186.944,444.162,190.452,448.49,190.452z"/>
</svg>